<mxfile host="app.diagrams.net" agent="Mozilla/5.0 (Windows NT 10.0; Win64; x64; rv:137.0) Gecko/20100101 Firefox/137.0" version="26.2.9">
  <diagram name="Página-1" id="rfG41IRhvqELCzWPmofW">
    <mxGraphModel dx="1428" dy="779" grid="1" gridSize="10" guides="1" tooltips="1" connect="1" arrows="1" fold="1" page="1" pageScale="1" pageWidth="850" pageHeight="1100" background="#ffffff" math="0" shadow="0">
      <root>
        <mxCell id="0" />
        <mxCell id="1" parent="0" />
        <mxCell id="MpdmCoiaEfP890VESc0J-1" value="&lt;b&gt;INE&lt;/b&gt;" style="swimlane;whiteSpace=wrap;html=1;startSize=23;fillColor=none;" parent="1" vertex="1">
          <mxGeometry x="120" y="80" width="340" height="570" as="geometry" />
        </mxCell>
        <mxCell id="MpdmCoiaEfP890VESc0J-6" value="" style="edgeStyle=orthogonalEdgeStyle;rounded=0;orthogonalLoop=1;jettySize=auto;html=1;" parent="MpdmCoiaEfP890VESc0J-1" source="MpdmCoiaEfP890VESc0J-3" target="MpdmCoiaEfP890VESc0J-4" edge="1">
          <mxGeometry relative="1" as="geometry" />
        </mxCell>
        <mxCell id="MpdmCoiaEfP890VESc0J-3" value="&lt;b&gt;Creación y Administración de Usuarios&lt;/b&gt;" style="rounded=0;whiteSpace=wrap;html=1;fillStyle=dots;fillColor=none;" parent="MpdmCoiaEfP890VESc0J-1" vertex="1">
          <mxGeometry x="70" y="40" width="130" height="70" as="geometry" />
        </mxCell>
        <mxCell id="MpdmCoiaEfP890VESc0J-4" value="&lt;b&gt;Aviso de solicitud&lt;/b&gt;" style="rounded=0;whiteSpace=wrap;html=1;fillColor=none;" parent="MpdmCoiaEfP890VESc0J-1" vertex="1">
          <mxGeometry x="70" y="160" width="130" height="60" as="geometry" />
        </mxCell>
        <mxCell id="MpdmCoiaEfP890VESc0J-8" value="Correo &lt;span data-hveid=&quot;CBkQAA&quot;&gt;&lt;span&gt;&lt;em&gt;electrónico&lt;/em&gt;&lt;/span&gt;&lt;/span&gt;" style="text;html=1;align=center;verticalAlign=middle;resizable=0;points=[];autosize=1;strokeColor=none;fillColor=none;" parent="MpdmCoiaEfP890VESc0J-1" vertex="1">
          <mxGeometry x="200" y="160" width="120" height="30" as="geometry" />
        </mxCell>
        <mxCell id="MpdmCoiaEfP890VESc0J-17" value="&lt;b&gt;Recibe Información INE&lt;/b&gt;" style="rounded=0;whiteSpace=wrap;html=1;fillColor=none;" parent="MpdmCoiaEfP890VESc0J-1" vertex="1">
          <mxGeometry x="70" y="280" width="120" height="60" as="geometry" />
        </mxCell>
        <mxCell id="MpdmCoiaEfP890VESc0J-28" value="" style="edgeStyle=orthogonalEdgeStyle;rounded=0;orthogonalLoop=1;jettySize=auto;html=1;" parent="MpdmCoiaEfP890VESc0J-1" source="MpdmCoiaEfP890VESc0J-22" target="MpdmCoiaEfP890VESc0J-27" edge="1">
          <mxGeometry relative="1" as="geometry" />
        </mxCell>
        <mxCell id="MpdmCoiaEfP890VESc0J-22" value="&lt;b&gt;ERROR&lt;/b&gt;" style="rhombus;whiteSpace=wrap;html=1;fillColor=none;" parent="MpdmCoiaEfP890VESc0J-1" vertex="1">
          <mxGeometry x="80" y="380" width="80" height="80" as="geometry" />
        </mxCell>
        <mxCell id="MpdmCoiaEfP890VESc0J-23" style="edgeStyle=orthogonalEdgeStyle;rounded=0;orthogonalLoop=1;jettySize=auto;html=1;exitX=0;exitY=0.5;exitDx=0;exitDy=0;entryX=0;entryY=0.5;entryDx=0;entryDy=0;" parent="MpdmCoiaEfP890VESc0J-1" edge="1">
          <mxGeometry relative="1" as="geometry">
            <mxPoint x="80" y="430" as="sourcePoint" />
            <mxPoint x="430" y="80" as="targetPoint" />
            <Array as="points">
              <mxPoint x="30" y="430" />
              <mxPoint x="30" y="260" />
              <mxPoint x="370" y="260" />
              <mxPoint x="370" y="80" />
            </Array>
          </mxGeometry>
        </mxCell>
        <mxCell id="MpdmCoiaEfP890VESc0J-26" value="Correo electrónico" style="text;html=1;align=center;verticalAlign=middle;resizable=0;points=[];autosize=1;strokeColor=none;fillColor=none;" parent="MpdmCoiaEfP890VESc0J-1" vertex="1">
          <mxGeometry x="35" y="230" width="120" height="30" as="geometry" />
        </mxCell>
        <mxCell id="MpdmCoiaEfP890VESc0J-27" value="Proceso Terminado" style="rounded=0;whiteSpace=wrap;html=1;" parent="MpdmCoiaEfP890VESc0J-1" vertex="1">
          <mxGeometry x="60" y="500" width="120" height="60" as="geometry" />
        </mxCell>
        <mxCell id="MpdmCoiaEfP890VESc0J-29" value="NO" style="text;html=1;align=center;verticalAlign=middle;resizable=0;points=[];autosize=1;strokeColor=none;fillColor=none;" parent="MpdmCoiaEfP890VESc0J-1" vertex="1">
          <mxGeometry x="115" y="448" width="40" height="30" as="geometry" />
        </mxCell>
        <mxCell id="MpdmCoiaEfP890VESc0J-2" value="&lt;b&gt;Fuente de Información&lt;/b&gt;" style="swimlane;whiteSpace=wrap;html=1;fillColor=none;" parent="1" vertex="1">
          <mxGeometry x="460" y="80" width="290" height="570" as="geometry" />
        </mxCell>
        <mxCell id="MpdmCoiaEfP890VESc0J-10" value="" style="edgeStyle=orthogonalEdgeStyle;rounded=0;orthogonalLoop=1;jettySize=auto;html=1;" parent="MpdmCoiaEfP890VESc0J-2" source="MpdmCoiaEfP890VESc0J-5" target="MpdmCoiaEfP890VESc0J-9" edge="1">
          <mxGeometry relative="1" as="geometry" />
        </mxCell>
        <mxCell id="MpdmCoiaEfP890VESc0J-5" value="&lt;b&gt;Recibe Solictud&lt;/b&gt;" style="rounded=0;whiteSpace=wrap;html=1;fillColor=none;" parent="MpdmCoiaEfP890VESc0J-2" vertex="1">
          <mxGeometry x="90" y="40" width="120" height="60" as="geometry" />
        </mxCell>
        <mxCell id="MpdmCoiaEfP890VESc0J-12" value="" style="edgeStyle=orthogonalEdgeStyle;rounded=0;orthogonalLoop=1;jettySize=auto;html=1;" parent="MpdmCoiaEfP890VESc0J-2" source="MpdmCoiaEfP890VESc0J-9" target="MpdmCoiaEfP890VESc0J-11" edge="1">
          <mxGeometry relative="1" as="geometry" />
        </mxCell>
        <mxCell id="MpdmCoiaEfP890VESc0J-9" value="&lt;b&gt;Carga de datos&lt;/b&gt;" style="rounded=0;whiteSpace=wrap;html=1;fillColor=none;" parent="MpdmCoiaEfP890VESc0J-2" vertex="1">
          <mxGeometry x="90" y="145" width="120" height="60" as="geometry" />
        </mxCell>
        <mxCell id="MpdmCoiaEfP890VESc0J-14" style="edgeStyle=orthogonalEdgeStyle;rounded=0;orthogonalLoop=1;jettySize=auto;html=1;exitX=0.5;exitY=1;exitDx=0;exitDy=0;entryX=0.5;entryY=0;entryDx=0;entryDy=0;" parent="MpdmCoiaEfP890VESc0J-2" source="MpdmCoiaEfP890VESc0J-11" target="MpdmCoiaEfP890VESc0J-13" edge="1">
          <mxGeometry relative="1" as="geometry" />
        </mxCell>
        <mxCell id="MpdmCoiaEfP890VESc0J-11" value="&lt;b&gt;Revisón&lt;/b&gt;" style="rounded=0;whiteSpace=wrap;html=1;fillColor=none;" parent="MpdmCoiaEfP890VESc0J-2" vertex="1">
          <mxGeometry x="90" y="255" width="120" height="60" as="geometry" />
        </mxCell>
        <mxCell id="MpdmCoiaEfP890VESc0J-15" style="edgeStyle=orthogonalEdgeStyle;rounded=0;orthogonalLoop=1;jettySize=auto;html=1;exitX=1;exitY=0.5;exitDx=0;exitDy=0;entryX=1;entryY=0.25;entryDx=0;entryDy=0;" parent="MpdmCoiaEfP890VESc0J-2" source="MpdmCoiaEfP890VESc0J-13" target="MpdmCoiaEfP890VESc0J-9" edge="1">
          <mxGeometry relative="1" as="geometry">
            <Array as="points">
              <mxPoint x="240" y="410" />
              <mxPoint x="240" y="160" />
            </Array>
          </mxGeometry>
        </mxCell>
        <mxCell id="MpdmCoiaEfP890VESc0J-13" value="&lt;b&gt;ERROR&lt;/b&gt;" style="rhombus;whiteSpace=wrap;html=1;fillColor=none;" parent="MpdmCoiaEfP890VESc0J-2" vertex="1">
          <mxGeometry x="110" y="370" width="80" height="80" as="geometry" />
        </mxCell>
        <mxCell id="MpdmCoiaEfP890VESc0J-7" style="edgeStyle=orthogonalEdgeStyle;rounded=0;orthogonalLoop=1;jettySize=auto;html=1;exitX=1;exitY=0.5;exitDx=0;exitDy=0;entryX=0;entryY=0.25;entryDx=0;entryDy=0;" parent="1" source="MpdmCoiaEfP890VESc0J-4" target="MpdmCoiaEfP890VESc0J-5" edge="1">
          <mxGeometry relative="1" as="geometry" />
        </mxCell>
        <mxCell id="MpdmCoiaEfP890VESc0J-16" value="&lt;b&gt;SI&lt;/b&gt;" style="text;html=1;align=center;verticalAlign=middle;resizable=0;points=[];autosize=1;strokeColor=none;fillColor=none;" parent="1" vertex="1">
          <mxGeometry x="655" y="458" width="30" height="30" as="geometry" />
        </mxCell>
        <mxCell id="MpdmCoiaEfP890VESc0J-18" style="edgeStyle=orthogonalEdgeStyle;rounded=0;orthogonalLoop=1;jettySize=auto;html=1;exitX=0;exitY=0.5;exitDx=0;exitDy=0;entryX=1;entryY=0.5;entryDx=0;entryDy=0;" parent="1" source="MpdmCoiaEfP890VESc0J-13" target="MpdmCoiaEfP890VESc0J-17" edge="1">
          <mxGeometry relative="1" as="geometry" />
        </mxCell>
        <mxCell id="MpdmCoiaEfP890VESc0J-21" value="&lt;b&gt;NO&lt;/b&gt;" style="text;html=1;align=center;verticalAlign=middle;resizable=0;points=[];autosize=1;strokeColor=none;fillColor=none;" parent="1" vertex="1">
          <mxGeometry x="520" y="458" width="40" height="30" as="geometry" />
        </mxCell>
        <mxCell id="MpdmCoiaEfP890VESc0J-25" value="SI" style="text;html=1;align=center;verticalAlign=middle;resizable=0;points=[];autosize=1;strokeColor=none;fillColor=none;" parent="1" vertex="1">
          <mxGeometry x="165" y="468" width="30" height="30" as="geometry" />
        </mxCell>
      </root>
    </mxGraphModel>
  </diagram>
</mxfile>
